<?xml version="1.0" encoding="UTF-8" standalone="no"?>
<!DOCTYPE svg PUBLIC "-//W3C//DTD SVG 1.1//EN" "http://www.w3.org/Graphics/SVG/1.1/DTD/svg11.dtd">
<svg version="1.1" xmlns="http://www.w3.org/2000/svg" xmlns:xlink="http://www.w3.org/1999/xlink" preserveAspectRatio="xMidYMid meet" viewBox="0 0 297.92 345" width="297.92" height="345"><path d="M177.23 0.06L178.03 0.14L178.82 0.25L179.6 0.39L180.36 0.56L181.12 0.76L181.86 0.99L182.6 1.25L183.31 1.53L184.02 1.83L184.71 2.17L185.38 2.53L186.04 2.91L186.68 3.32L187.31 3.75L187.91 4.2L188.5 4.67L189.07 5.17L189.62 5.68L190.15 6.22L190.66 6.78L191.14 7.35L191.61 7.94L192.05 8.55L192.47 9.18L192.86 9.82L193.23 10.48L193.57 11.15L193.88 11.84L194.17 12.54L194.43 13.25L194.67 13.98L194.87 14.72L195.04 15.46L195.19 16.22L195.3 16.99L195.38 17.77L195.43 18.56L195.45 19.35L195.43 20.15L195.38 20.93L195.3 21.71L195.19 22.48L195.04 23.24L194.87 23.99L194.67 24.73L194.43 25.45L194.17 26.16L193.88 26.87L193.57 27.55L193.23 28.23L192.86 28.88L192.47 29.53L192.05 30.15L191.61 30.76L191.14 31.35L190.66 31.93L190.15 32.48L189.62 33.02L189.07 33.53L188.5 34.03L187.91 34.5L187.31 34.96L186.68 35.39L186.04 35.79L185.38 36.18L184.71 36.53L184.02 36.87L183.31 37.18L182.59 37.46L181.86 37.71L181.12 37.94L180.36 38.14L179.6 38.31L178.82 38.45L178.03 38.56L177.23 38.64L176.42 38.69L175.61 38.7L167.95 38.7L167.95 48.28L170.06 48.57L172.15 48.88L174.24 49.22L176.31 49.59L178.37 49.99L180.43 50.41L182.47 50.87L184.5 51.35L186.53 51.86L188.54 52.4L190.54 52.97L192.52 53.56L194.5 54.18L196.46 54.82L198.42 55.49L200.36 56.19L202.28 56.92L204.2 57.67L206.1 58.44L207.99 59.24L209.86 60.07L211.73 60.92L213.57 61.8L215.41 62.7L217.23 63.62L219.03 64.57L220.82 65.54L222.6 66.54L224.36 67.56L226.1 68.6L227.83 69.66L229.54 70.75L231.24 71.86L232.92 73L234.59 74.15L236.24 75.33L237.87 76.53L239.48 77.75L241.08 78.99L242.66 80.25L248.05 74.87L248.63 74.3L249.23 73.76L249.84 73.24L250.46 72.75L251.09 72.28L251.73 71.83L252.37 71.41L253.03 71.01L253.69 70.63L254.35 70.28L255.02 69.96L255.7 69.66L256.38 69.39L257.06 69.14L257.74 68.91L258.43 68.71L259.11 68.54L259.79 68.39L260.48 68.26L261.16 68.17L261.83 68.09L262.5 68.05L263.17 68.03L263.83 68.03L264.49 68.07L265.13 68.12L265.77 68.21L266.4 68.32L267.02 68.46L267.63 68.62L268.23 68.81L268.82 69.03L269.39 69.27L269.95 69.54L270.5 69.84L271.03 70.17L271.54 70.52L272.04 70.9L272.51 71.31L272.97 71.74L273.41 72.2L273.82 72.68L274.2 73.18L274.55 73.69L274.88 74.22L275.18 74.77L275.45 75.33L275.69 75.9L275.91 76.49L276.1 77.08L276.26 77.69L276.4 78.32L276.51 78.95L276.6 79.59L276.65 80.23L276.69 80.89L276.69 81.55L276.67 82.22L276.63 82.89L276.55 83.56L276.46 84.24L276.33 84.92L276.18 85.61L276.01 86.29L275.81 86.98L275.58 87.66L275.33 88.34L275.06 89.02L274.76 89.69L274.44 90.37L274.09 91.03L273.71 91.69L273.31 92.35L272.89 92.99L272.44 93.63L271.97 94.26L271.48 94.88L270.96 95.49L270.42 96.09L269.85 96.67L264.5 102.03L266.05 103.96L267.57 105.93L269.05 107.91L270.51 109.93L271.93 111.97L273.32 114.03L274.67 116.12L275.99 118.23L277.28 120.36L278.53 122.52L279.75 124.7L280.93 126.9L282.07 129.13L283.18 131.37L284.25 133.64L285.29 135.93L286.28 138.24L287.24 140.56L288.16 142.91L289.04 145.28L289.88 147.67L290.69 150.07L291.45 152.49L292.17 154.93L292.85 157.39L293.49 159.86L294.09 162.35L294.65 164.86L295.16 167.38L295.63 169.92L296.06 172.47L296.45 175.04L296.79 177.62L297.09 180.21L297.34 182.82L297.55 185.44L297.71 188.07L297.82 190.72L297.89 193.37L297.92 196.04L297.79 202.18L297.42 208.26L296.81 214.27L295.97 220.2L294.89 226.06L293.59 231.84L292.06 237.53L290.32 243.12L288.37 248.62L286.21 254.02L283.85 259.32L281.29 264.5L278.54 269.56L275.6 274.51L272.48 279.33L269.18 284.01L265.7 288.57L262.06 292.98L258.25 297.25L254.29 301.37L250.17 305.34L245.9 309.14L241.49 312.79L236.93 316.26L232.24 319.56L227.42 322.68L222.48 325.62L217.41 328.37L212.23 330.93L206.94 333.29L201.54 335.45L196.04 337.41L190.45 339.15L184.76 340.67L178.98 341.97L173.12 343.05L167.19 343.9L161.18 344.51L155.1 344.88L148.96 345L142.82 344.88L136.74 344.51L130.73 343.9L124.8 343.05L118.94 341.97L113.16 340.67L107.47 339.15L101.88 337.41L96.38 335.45L90.98 333.29L85.69 330.93L80.5 328.37L75.44 325.62L70.49 322.68L65.68 319.56L60.99 316.26L56.43 312.79L52.02 309.14L47.75 305.34L43.63 301.37L39.67 297.25L35.86 292.98L32.22 288.57L28.74 284.01L25.44 279.33L22.32 274.51L19.38 269.56L16.63 264.5L14.07 259.32L11.71 254.02L9.55 248.62L7.6 243.12L5.86 237.53L4.33 231.84L3.03 226.06L1.95 220.2L1.11 214.27L0.5 208.26L0.13 202.18L0 196.04L0.11 190.38L0.42 184.77L0.94 179.22L1.66 173.73L2.58 168.3L3.69 162.95L4.99 157.66L6.48 152.45L8.15 147.32L10 142.28L12.03 137.32L14.22 132.45L16.58 127.67L19.11 123L21.8 118.43L24.64 113.96L27.63 109.6L30.78 105.36L34.07 101.23L37.5 97.22L41.06 93.34L44.77 89.59L48.6 85.97L52.55 82.49L56.63 79.14L60.83 75.94L65.14 72.88L69.57 69.98L74.1 67.23L78.74 64.64L83.47 62.21L88.3 59.95L93.23 57.86L98.24 55.94L103.34 54.2L108.51 52.64L113.77 51.26L119.1 50.08L124.5 49.08L129.97 48.28L129.97 38.7L122.31 38.7L121.5 38.69L120.69 38.64L119.89 38.56L119.1 38.45L118.32 38.31L117.56 38.14L116.8 37.94L116.06 37.71L115.33 37.46L114.61 37.18L113.9 36.87L113.21 36.53L112.54 36.18L111.88 35.79L111.24 35.39L110.61 34.96L110.01 34.5L109.42 34.03L108.85 33.53L108.3 33.02L107.77 32.48L107.26 31.93L106.78 31.35L106.31 30.76L105.87 30.15L105.46 29.53L105.06 28.88L104.7 28.23L104.35 27.55L104.04 26.87L103.75 26.16L103.49 25.45L103.26 24.73L103.05 23.99L102.88 23.24L102.73 22.48L102.62 21.71L102.54 20.93L102.49 20.15L102.47 19.35L102.49 18.56L102.54 17.77L102.62 16.99L102.73 16.22L102.88 15.46L103.05 14.72L103.26 13.98L103.49 13.25L103.75 12.54L104.04 11.84L104.35 11.15L104.7 10.48L105.06 9.82L105.46 9.18L105.87 8.55L106.31 7.94L106.78 7.35L107.26 6.78L107.77 6.22L108.3 5.68L108.85 5.17L109.42 4.67L110.01 4.2L110.61 3.75L111.24 3.32L111.88 2.91L112.54 2.53L113.21 2.17L113.9 1.83L114.61 1.53L115.33 1.25L116.06 0.99L116.8 0.76L117.56 0.56L118.32 0.39L119.1 0.25L119.89 0.14L120.69 0.06L121.5 0.02L122.31 0L175.61 0L176.43 0.02L177.23 0.06ZM139.93 86.27L135.48 86.72L131.1 87.35L126.76 88.14L122.49 89.11L118.29 90.23L114.15 91.52L110.08 92.96L106.09 94.56L102.18 96.31L98.35 98.2L94.6 100.23L90.94 102.41L87.38 104.72L83.91 107.16L80.55 109.72L77.28 112.42L74.13 115.23L71.08 118.16L68.15 121.21L65.34 124.37L62.64 127.63L60.07 131L57.63 134.46L55.32 138.03L53.15 141.68L51.12 145.43L49.23 149.26L47.48 153.17L45.88 157.16L44.44 161.23L43.15 165.37L42.02 169.57L41.06 173.85L40.27 178.18L39.64 182.57L39.19 187.01L38.92 191.5L38.82 196.04L38.92 200.58L39.19 205.07L39.64 209.52L40.27 213.91L41.06 218.24L42.02 222.51L43.15 226.72L44.44 230.85L45.88 234.92L47.48 238.91L49.23 242.83L51.12 246.66L53.15 250.4L55.32 254.06L57.63 257.62L60.07 261.09L62.64 264.45L65.34 267.72L68.15 270.87L71.08 273.92L74.13 276.85L77.28 279.67L80.55 282.36L83.91 284.93L87.38 287.37L90.94 289.68L94.6 291.85L98.35 293.88L102.18 295.78L106.09 297.52L110.08 299.12L114.15 300.56L118.29 301.85L122.49 302.98L126.76 303.94L131.1 304.74L135.48 305.36L139.93 305.81L144.42 306.09L148.96 306.18L153.5 306.09L157.99 305.81L162.44 305.36L166.82 304.74L171.16 303.94L175.43 302.98L179.63 301.85L183.77 300.56L187.84 299.12L191.83 297.52L195.74 295.78L199.57 293.88L203.32 291.85L206.97 289.68L210.54 287.37L214 284.93L217.37 282.36L220.64 279.67L223.79 276.85L226.84 273.92L229.77 270.87L232.58 267.72L235.28 264.45L237.85 261.09L240.29 257.62L242.59 254.06L244.77 250.4L246.8 246.66L248.69 242.83L250.44 238.91L252.04 234.92L253.48 230.85L254.77 226.72L255.9 222.51L256.86 218.24L257.65 213.91L258.28 209.52L258.73 205.07L259 200.58L259.1 196.04L259 191.5L258.73 187.01L258.28 182.57L257.65 178.18L256.86 173.85L255.9 169.57L254.77 165.37L253.48 161.23L252.04 157.16L250.44 153.17L248.69 149.26L246.8 145.43L244.77 141.68L242.59 138.03L240.29 134.46L237.85 131L235.28 127.63L232.58 124.37L229.77 121.21L226.84 118.16L223.79 115.23L220.64 112.42L217.37 109.72L214 107.16L210.54 104.72L206.97 102.41L203.32 100.23L199.57 98.2L195.74 96.31L191.83 94.56L187.84 92.96L183.77 91.52L179.63 90.23L175.43 89.11L171.16 88.14L166.82 87.35L162.44 86.72L157.99 86.27L153.5 86L148.96 85.91L144.42 86L139.93 86.27Z" id="aLPxJ0rsE"  fill="#dedede"></path><path d="M159.33 69.65L164.44 70.17L169.48 70.89L174.45 71.8L179.36 72.91L184.19 74.2L188.94 75.68L193.61 77.34L198.2 79.17L202.69 81.18L207.09 83.35L211.4 85.69L215.59 88.18L219.69 90.84L223.67 93.64L227.54 96.59L231.28 99.68L234.91 102.91L238.41 106.28L241.78 109.78L245.01 113.41L248.1 117.15L251.05 121.02L253.86 125L256.51 129.1L259 133.3L261.34 137.6L263.51 142L265.52 146.49L267.35 151.08L269.01 155.75L270.49 160.5L271.78 165.33L272.89 170.24L273.8 175.21L274.52 180.25L275.04 185.36L275.35 190.52L275.46 195.73L275.35 200.95L275.04 206.11L274.52 211.21L273.8 216.25L272.89 221.22L271.78 226.13L270.49 230.96L269.01 235.71L267.35 240.39L265.52 244.97L263.51 249.46L261.34 253.86L259 258.17L256.51 262.37L253.86 266.46L251.05 270.44L248.1 274.31L245.01 278.06L241.78 281.68L238.41 285.18L234.91 288.55L231.28 291.78L227.54 294.87L223.67 297.82L219.69 300.63L215.59 303.28L211.4 305.77L207.09 308.11L202.69 310.28L198.2 312.29L193.61 314.12L188.94 315.78L184.19 317.26L179.36 318.55L174.45 319.66L169.48 320.58L164.44 321.29L159.33 321.81L154.17 322.13L148.96 322.23L143.75 322.13L138.59 321.81L133.48 321.29L128.44 320.58L123.47 319.66L118.56 318.55L113.73 317.26L108.98 315.78L104.31 314.12L99.72 312.29L95.23 310.28L90.83 308.11L86.52 305.77L82.33 303.28L78.23 300.63L74.25 297.82L70.38 294.87L66.64 291.78L63.01 288.55L59.51 285.18L56.14 281.68L52.91 278.06L49.82 274.31L46.87 270.44L44.06 266.46L41.41 262.37L38.92 258.17L36.58 253.86L34.41 249.46L32.4 244.97L30.57 240.39L28.91 235.71L27.43 230.96L26.14 226.13L25.03 221.22L24.12 216.25L23.4 211.21L22.88 206.11L22.57 200.95L22.46 195.73L22.57 190.52L22.88 185.36L23.4 180.25L24.12 175.21L25.03 170.24L26.14 165.33L27.43 160.5L28.91 155.75L30.57 151.08L32.4 146.49L34.41 142L36.58 137.6L38.92 133.3L41.41 129.1L44.06 125L46.87 121.02L49.82 117.15L52.91 113.41L56.14 109.78L59.51 106.28L63.01 102.91L66.64 99.68L70.38 96.59L74.25 93.64L78.23 90.83L82.33 88.18L86.52 85.69L90.83 83.35L95.23 81.18L99.72 79.17L104.31 77.34L108.98 75.68L113.73 74.2L118.56 72.91L123.47 71.8L128.44 70.89L133.48 70.17L138.59 69.65L143.75 69.34L148.96 69.23L154.17 69.34L159.33 69.65ZM139.92 86.48L135.48 86.93L131.09 87.55L126.76 88.35L122.49 89.31L118.28 90.44L114.14 91.73L110.07 93.17L106.08 94.77L102.16 96.52L98.33 98.41L94.59 100.44L90.93 102.62L87.36 104.93L83.9 107.37L80.53 109.94L77.26 112.63L74.11 115.45L71.06 118.38L68.13 121.43L65.31 124.58L62.62 127.85L60.05 131.22L57.61 134.68L55.3 138.25L53.12 141.91L51.09 145.65L49.2 149.48L47.45 153.4L45.85 157.39L44.41 161.46L43.12 165.6L41.99 169.81L41.03 174.08L40.23 178.41L39.61 182.8L39.16 187.24L38.88 191.74L38.79 196.28L38.88 200.82L39.16 205.32L39.61 209.76L40.23 214.15L41.03 218.48L41.99 222.75L43.12 226.96L44.41 231.1L45.85 235.17L47.45 239.16L49.2 243.08L51.09 246.91L53.12 250.65L55.3 254.31L57.61 257.88L60.05 261.34L62.62 264.71L65.31 267.98L68.13 271.13L71.06 274.18L74.11 277.11L77.26 279.93L80.53 282.62L83.9 285.19L87.36 287.63L90.93 289.94L94.59 292.12L98.33 294.15L102.16 296.04L106.08 297.79L110.07 299.39L114.14 300.83L118.28 302.12L122.49 303.25L126.76 304.21L131.09 305L135.48 305.63L139.92 306.08L144.42 306.35L148.96 306.45L153.5 306.35L158 306.08L162.44 305.63L166.83 305L171.16 304.21L175.43 303.25L179.64 302.12L183.78 300.83L187.85 299.39L191.84 297.79L195.76 296.04L199.59 294.15L203.33 292.12L206.99 289.94L210.56 287.63L214.02 285.19L217.39 282.62L220.66 279.93L223.81 277.11L226.86 274.18L229.79 271.13L232.61 267.98L235.3 264.71L237.87 261.34L240.31 257.88L242.62 254.31L244.8 250.65L246.83 246.91L248.72 243.08L250.47 239.16L252.07 235.17L253.51 231.1L254.8 226.96L255.93 222.75L256.89 218.48L257.69 214.15L258.31 209.76L258.76 205.32L259.04 200.82L259.13 196.28L259.04 191.74L258.76 187.24L258.31 182.8L257.69 178.41L256.89 174.08L255.93 169.81L254.8 165.6L253.51 161.46L252.07 157.39L250.47 153.4L248.72 149.48L246.83 145.65L244.8 141.91L242.62 138.25L240.31 134.68L237.87 131.22L235.3 127.85L232.61 124.58L229.79 121.43L226.86 118.38L223.81 115.45L220.66 112.63L217.39 109.94L214.02 107.37L210.56 104.93L206.99 102.62L203.33 100.44L199.59 98.41L195.76 96.52L191.84 94.77L187.85 93.17L183.78 91.73L179.64 90.44L175.43 89.31L171.16 88.35L166.83 87.55L162.44 86.93L158 86.48L153.5 86.2L148.96 86.11L144.42 86.2L139.92 86.48Z" id="a5a220Vya" fill="#d22856"></path><text fill="#d22856" id="cb6VxUINq" x="99.37" y="158.1" font-size="120" font-family="Open Sans" font-weight="700" font-style="normal" letter-spacing="0" alignment-baseline="before-edge" transform="matrix(1 0 0 1 -19.087619047619064 -53.96825396825375)" style="line-height:100%" xml:space="preserve" dominant-baseline="text-before-edge"><tspan x="99.37" dy="0em" alignment-baseline="before-edge" dominant-baseline="text-before-edge" text-anchor="start">24</tspan></text><style id="opensans700normal"></style></svg>
